<svg width="587" height="587" viewBox="0 0 587 587" fill="none" xmlns="http://www.w3.org/2000/svg">
<circle cx="293.5" cy="293.5" r="293.5" fill="#D9D9D9"/>
<circle cx="293.5" cy="293.5" r="293.5" fill="url(#paint0_linear_201_59265)"/>
<circle cx="293.506" cy="293.502" r="275.216" fill="#2735D5"/>
<path d="M482.345 347.352C485.106 347.352 487.345 345.114 487.345 342.352V261C487.345 258.239 485.107 256 482.345 256H456.387C453.626 256 451.387 258.239 451.387 261V286.944C451.387 286.975 451.413 287 451.444 287C451.475 287 451.5 287.025 451.5 287.056V342.352C451.5 345.114 453.739 347.352 456.5 347.352H482.345Z" fill="white"/>
<path d="M438.5 344.165C438.5 344.544 438.286 344.893 437.942 345.054C433.751 347.018 428.893 348 423.366 348C412.892 348 404.685 344.491 398.746 337.472C392.915 330.453 390 320.951 390 308.965V261C390 258.239 392.239 256 395 256H420.796C423.557 256 425.796 258.239 425.796 261V304.43C425.796 308.749 426.93 312.204 429.197 314.796C431.347 317.044 434.117 318.274 437.505 318.488C438.055 318.522 438.5 318.966 438.5 319.516V344.165Z" fill="white"/>
<path d="M334.959 315.792H335.116L316.19 259.883C315.575 258.069 313.007 258.073 312.399 259.89L294.574 313.158C294.14 314.453 295.104 315.792 296.471 315.792H317.657C319.796 315.792 321.699 317.154 322.389 319.179L329.754 340.786C330.859 344.03 328.448 347.399 325.021 347.399H286.503C284.359 347.399 282.455 348.765 281.767 350.795L274.011 373.694C273.323 375.724 271.418 377.09 269.275 377.09H237.126C233.66 377.09 231.245 373.648 232.425 370.389L289.625 212.299C290.342 210.319 292.222 209 294.327 209H334.728C336.83 209 338.707 210.315 339.426 212.29L386.162 340.689C387.349 343.95 384.934 347.399 381.464 347.399H349.47C347.339 347.399 345.443 346.049 344.745 344.036L334.959 315.792Z" fill="white"/>
<path d="M250.371 214V282.834L215.908 377.09H209.426L152.614 278.965C151.521 277.31 148.945 278.084 148.945 280.067V342.09C148.945 344.851 146.706 347.09 143.945 347.09H113C110.239 347.09 108 344.851 108 342.09V214C108 211.239 110.239 209 113 209H146.248C147.932 209 149.502 209.847 150.426 211.253L205.755 307.575C206.846 309.234 209.426 308.461 209.426 306.476V214C209.426 211.239 211.665 209 214.426 209H245.371C248.133 209 250.371 211.239 250.371 214Z" fill="white"/>
<defs>
<linearGradient id="paint0_linear_201_59265" x1="0.000845478" y1="293.5" x2="587.001" y2="293.5" gradientUnits="userSpaceOnUse">
<stop stop-color="#2735D5"/>
<stop offset="0.0132365" stop-color="#2735D5"/>
<stop offset="0.375879" stop-color="#8573FE"/>
<stop offset="0.387556" stop-color="#8573FE"/>
<stop offset="0.707473" stop-color="#EDAEFD"/>
<stop offset="1" stop-color="#32EDFF"/>
</linearGradient>
</defs>
</svg>
