<svg width="2479" height="587" viewBox="0 0 2479 587" fill="none" xmlns="http://www.w3.org/2000/svg">
<circle cx="293.5" cy="293.5" r="293.5" fill="#D9D9D9"/>
<circle cx="293.5" cy="293.5" r="293.5" fill="url(#paint0_linear_201_59264)"/>
<circle cx="293.506" cy="293.502" r="275.216" fill="#2735D5"/>
<path d="M482.345 347.352C485.106 347.352 487.345 345.114 487.345 342.352V261C487.345 258.239 485.107 256 482.345 256H456.387C453.626 256 451.387 258.239 451.387 261V286.944C451.387 286.975 451.413 287 451.444 287C451.475 287 451.5 287.025 451.5 287.056V342.352C451.5 345.114 453.739 347.352 456.5 347.352H482.345Z" fill="white"/>
<path d="M438.5 344.165C438.5 344.544 438.286 344.893 437.942 345.054C433.751 347.018 428.893 348 423.366 348C412.892 348 404.685 344.491 398.746 337.472C392.915 330.453 390 320.951 390 308.965V261C390 258.239 392.239 256 395 256H420.796C423.557 256 425.796 258.239 425.796 261V304.43C425.796 308.749 426.93 312.204 429.197 314.796C431.347 317.044 434.117 318.274 437.505 318.488C438.055 318.522 438.5 318.966 438.5 319.516V344.165Z" fill="white"/>
<path d="M334.959 315.792H335.116L316.19 259.883C315.575 258.069 313.007 258.073 312.399 259.89L294.574 313.158C294.14 314.453 295.104 315.792 296.471 315.792H317.657C319.796 315.792 321.699 317.154 322.389 319.179L329.754 340.786C330.859 344.03 328.448 347.399 325.021 347.399H286.503C284.359 347.399 282.455 348.765 281.767 350.795L274.011 373.694C273.323 375.724 271.418 377.09 269.275 377.09H237.126C233.66 377.09 231.245 373.648 232.425 370.389L289.625 212.299C290.342 210.319 292.222 209 294.327 209H334.728C336.83 209 338.707 210.315 339.426 212.29L386.162 340.689C387.349 343.95 384.934 347.399 381.464 347.399H349.47C347.339 347.399 345.443 346.049 344.745 344.036L334.959 315.792Z" fill="white"/>
<path d="M250.371 214V282.834L215.908 377.09H209.426L152.614 278.965C151.521 277.31 148.945 278.084 148.945 280.067V342.09C148.945 344.851 146.706 347.09 143.945 347.09H113C110.239 347.09 108 344.851 108 342.09V214C108 211.239 110.239 209 113 209H146.248C147.932 209 149.502 209.847 150.426 211.253L205.755 307.575C206.846 309.234 209.426 308.461 209.426 306.476V214C209.426 211.239 211.665 209 214.426 209H245.371C248.133 209 250.371 211.239 250.371 214Z" fill="white"/>
<path d="M902.2 439.546H865.8L719.4 217.546V439.546H683V160.346H719.4L865.8 381.946V160.346H902.2V439.546Z" fill="black"/>
<path d="M1164.25 321.546C1164.25 328.479 1163.85 335.813 1163.05 343.546H987.85C989.183 365.146 996.517 382.079 1009.85 394.346C1023.45 406.346 1039.85 412.346 1059.05 412.346C1074.78 412.346 1087.85 408.746 1098.25 401.546C1108.92 394.079 1116.38 384.213 1120.65 371.946H1159.85C1153.98 393.013 1142.25 410.213 1124.65 423.546C1107.05 436.613 1085.18 443.146 1059.05 443.146C1038.25 443.146 1019.58 438.479 1003.05 429.146C986.783 419.813 973.983 406.613 964.65 389.546C955.317 372.213 950.65 352.213 950.65 329.546C950.65 306.879 955.183 287.013 964.25 269.946C973.317 252.879 985.983 239.813 1002.25 230.746C1018.78 221.413 1037.72 216.746 1059.05 216.746C1079.85 216.746 1098.25 221.279 1114.25 230.346C1130.25 239.413 1142.52 251.946 1151.05 267.946C1159.85 283.679 1164.25 301.546 1164.25 321.546ZM1126.65 313.946C1126.65 300.079 1123.58 288.213 1117.45 278.346C1111.32 268.213 1102.92 260.613 1092.25 255.546C1081.85 250.213 1070.25 247.546 1057.45 247.546C1039.05 247.546 1023.32 253.413 1010.25 265.146C997.45 276.879 990.117 293.146 988.25 313.946H1126.65Z" fill="black"/>
<path d="M1307.9 443.146C1287.36 443.146 1268.7 438.479 1251.9 429.146C1235.36 419.813 1222.3 406.613 1212.7 389.546C1203.36 372.213 1198.7 352.213 1198.7 329.546C1198.7 307.146 1203.5 287.413 1213.1 270.346C1222.96 253.013 1236.3 239.813 1253.1 230.746C1269.9 221.413 1288.7 216.746 1309.5 216.746C1330.3 216.746 1349.1 221.413 1365.9 230.746C1382.7 239.813 1395.9 252.879 1405.5 269.946C1415.36 287.013 1420.3 306.879 1420.3 329.546C1420.3 352.213 1415.23 372.213 1405.1 389.546C1395.23 406.613 1381.76 419.813 1364.7 429.146C1347.63 438.479 1328.7 443.146 1307.9 443.146ZM1307.9 411.146C1320.96 411.146 1333.23 408.079 1344.7 401.946C1356.16 395.813 1365.36 386.613 1372.3 374.346C1379.5 362.079 1383.1 347.146 1383.1 329.546C1383.1 311.946 1379.63 297.013 1372.7 284.746C1365.76 272.479 1356.7 263.413 1345.5 257.546C1334.3 251.413 1322.16 248.346 1309.1 248.346C1295.76 248.346 1283.5 251.413 1272.3 257.546C1261.36 263.413 1252.56 272.479 1245.9 284.746C1239.23 297.013 1235.9 311.946 1235.9 329.546C1235.9 347.413 1239.1 362.479 1245.5 374.746C1252.16 387.013 1260.96 396.213 1271.9 402.346C1282.83 408.213 1294.83 411.146 1307.9 411.146Z" fill="black"/>
<path d="M1648.56 247.546C1643.49 238.213 1636.16 231.146 1626.56 226.346C1617.22 221.279 1606.16 218.746 1593.36 218.746C1571.22 218.746 1553.49 226.079 1540.16 240.746C1526.82 255.146 1520.16 274.479 1520.16 298.746C1520.16 324.613 1527.09 344.879 1540.96 359.546C1555.09 373.946 1574.42 381.146 1598.96 381.146C1615.76 381.146 1629.89 376.879 1641.36 368.346C1653.09 359.813 1661.62 347.546 1666.96 331.546H1580.16V281.146H1728.96V344.746C1723.89 361.813 1715.22 377.679 1702.96 392.346C1690.96 407.013 1675.62 418.879 1656.96 427.946C1638.29 437.013 1617.22 441.546 1593.76 441.546C1566.02 441.546 1541.22 435.546 1519.36 423.546C1497.76 411.279 1480.82 394.346 1468.56 372.746C1456.56 351.146 1450.56 326.479 1450.56 298.746C1450.56 271.013 1456.56 246.346 1468.56 224.746C1480.82 202.879 1497.76 185.946 1519.36 173.946C1540.96 161.679 1565.62 155.546 1593.36 155.546C1626.96 155.546 1655.22 163.679 1678.16 179.946C1701.36 196.213 1716.69 218.746 1724.16 247.546H1648.56Z" fill="black"/>
<path d="M1868.44 442.746C1846.58 442.746 1826.84 438.079 1809.24 428.746C1791.91 419.413 1778.18 406.079 1768.04 388.746C1758.18 371.413 1753.24 351.146 1753.24 327.946C1753.24 305.013 1758.31 284.879 1768.44 267.546C1778.58 249.946 1792.44 236.479 1810.04 227.146C1827.64 217.813 1847.38 213.146 1869.24 213.146C1891.11 213.146 1910.84 217.813 1928.44 227.146C1946.04 236.479 1959.91 249.946 1970.04 267.546C1980.18 284.879 1985.24 305.013 1985.24 327.946C1985.24 350.879 1980.04 371.146 1969.64 388.746C1959.51 406.079 1945.51 419.413 1927.64 428.746C1910.04 438.079 1890.31 442.746 1868.44 442.746ZM1868.44 383.546C1881.51 383.546 1892.58 378.746 1901.64 369.146C1910.98 359.546 1915.64 345.813 1915.64 327.946C1915.64 310.079 1911.11 296.346 1902.04 286.746C1893.24 277.146 1882.31 272.346 1869.24 272.346C1855.91 272.346 1844.84 277.146 1836.04 286.746C1827.24 296.079 1822.84 309.813 1822.84 327.946C1822.84 345.813 1827.11 359.546 1835.64 369.146C1844.44 378.746 1855.38 383.546 1868.44 383.546Z" fill="black"/>
<path d="M2089.93 143.546V439.546H2021.53V143.546H2089.93Z" fill="black"/>
<path d="M2125.9 327.546C2125.9 304.613 2130.17 284.479 2138.7 267.146C2147.5 249.813 2159.37 236.479 2174.3 227.146C2189.23 217.813 2205.9 213.146 2224.3 213.146C2238.97 213.146 2252.3 216.213 2264.3 222.346C2276.57 228.479 2286.17 236.746 2293.1 247.146V143.546H2361.5V439.546H2293.1V407.546C2286.7 418.213 2277.5 426.746 2265.5 433.146C2253.77 439.546 2240.03 442.746 2224.3 442.746C2205.9 442.746 2189.23 438.079 2174.3 428.746C2159.37 419.146 2147.5 405.679 2138.7 388.346C2130.17 370.746 2125.9 350.479 2125.9 327.546ZM2293.1 327.946C2293.1 310.879 2288.3 297.413 2278.7 287.546C2269.37 277.679 2257.9 272.746 2244.3 272.746C2230.7 272.746 2219.1 277.679 2209.5 287.546C2200.17 297.146 2195.5 310.479 2195.5 327.546C2195.5 344.613 2200.17 358.213 2209.5 368.346C2219.1 378.213 2230.7 383.146 2244.3 383.146C2257.9 383.146 2269.37 378.213 2278.7 368.346C2288.3 358.479 2293.1 345.013 2293.1 327.946Z" fill="black"/>
<ellipse cx="2438.95" cy="404" rx="39.454" ry="39.4542" fill="#2735D5"/>
<ellipse cx="2438.95" cy="404" rx="39.454" ry="39.4542" fill="url(#paint1_linear_201_59264)"/>
<ellipse cx="2438.95" cy="403.999" rx="33.6803" ry="33.6803" fill="#2735D5"/>
<defs>
<linearGradient id="paint0_linear_201_59264" x1="0.000845478" y1="293.5" x2="587.001" y2="293.5" gradientUnits="userSpaceOnUse">
<stop stop-color="#2735D5"/>
<stop offset="0.0132365" stop-color="#2735D5"/>
<stop offset="0.375879" stop-color="#8573FE"/>
<stop offset="0.387556" stop-color="#8573FE"/>
<stop offset="0.707473" stop-color="#EDAEFD"/>
<stop offset="1" stop-color="#32EDFF"/>
</linearGradient>
<linearGradient id="paint1_linear_201_59264" x1="2399.5" y1="404" x2="2478.41" y2="404" gradientUnits="userSpaceOnUse">
<stop stop-color="#2735D5"/>
<stop offset="0.0132365" stop-color="#2735D5"/>
<stop offset="0.375879" stop-color="#8573FE"/>
<stop offset="0.387556" stop-color="#8573FE"/>
<stop offset="0.707473" stop-color="#EDAEFD"/>
<stop offset="1" stop-color="#32EDFF"/>
</linearGradient>
</defs>
</svg>
