<svg width="2883" height="587" viewBox="0 0 2883 587" fill="none" xmlns="http://www.w3.org/2000/svg">
<circle cx="293.5" cy="293.5" r="284.5" fill="#2735D5"/>
<circle cx="293.5" cy="293.5" r="284.5" stroke="black" stroke-width="18"/>
<circle cx="293.5" cy="293.5" r="284.5" stroke="url(#paint0_linear_133_42)" stroke-width="18"/>
<path d="M109 287.99C109 263.695 114.256 242.087 124.768 223.166C135.28 204.011 149.88 189.177 168.568 178.665C187.489 167.92 208.864 162.547 232.691 162.547C249.337 162.547 264.617 165.052 278.531 170.063C281.361 171.082 281.799 174.815 279.484 176.735C267.372 187.953 261.543 199.126 257.936 217.224C257.518 219.808 254.756 221.335 252.284 220.474C246.04 218.297 239.275 217.209 231.99 217.209C213.536 217.209 198.585 223.633 187.139 236.481C175.693 249.329 169.969 266.499 169.969 287.99C169.969 309.481 175.693 326.65 187.139 339.498C198.585 352.346 213.536 358.77 231.99 358.77C239.396 358.77 246.263 357.646 252.593 355.397C254.966 354.554 257.636 355.919 258.189 358.375C261.942 375.031 267.168 385.399 279.645 399.651C281.433 401.693 280.717 404.913 278.156 405.812C264.343 410.658 249.188 413.082 232.691 413.082C208.864 413.082 187.489 407.826 168.568 397.314C149.88 386.568 135.28 371.735 124.768 352.813C114.256 333.892 109 312.284 109 287.99Z" fill="white"/>
<path d="M464.084 231.974C464.351 234.285 462.508 236.265 460.182 236.265H404.367C402.158 236.265 400.367 234.474 400.367 232.265V170.781C400.367 168.243 402.703 166.342 405.163 166.965C419.297 170.543 431.13 176.474 440.663 184.757C453.971 196.319 461.778 212.058 464.084 231.974Z" fill="white"/>
<path d="M336.231 339.983H280.031C277.82 339.983 276.046 341.827 276.233 344.03C277.941 364.09 285.915 380.144 300.154 392.192C300.878 392.794 301.614 393.385 302.361 393.963C311.607 401.123 322.527 406.447 335.12 409.934C337.601 410.621 340 408.713 340 406.139V342.655C339.4 341.098 337.943 339.983 336.231 339.983Z" fill="white"/>
<path d="M428.399 403.405C441.481 396.397 451.292 387.52 457.833 376.775C464.607 365.796 467.994 353.882 467.994 341.034C467.994 324.215 463.79 311.017 455.38 301.439C447.204 291.628 437.86 284.62 427.348 280.415C416.836 276.21 401.886 271.422 382.497 266.049V211.737L382.508 211.741V163.383L382.497 163.382V143C382.497 138.582 378.915 135 374.497 135H368.072C363.654 135 360.072 138.582 360.072 143L360.075 225.36H360.072V258.691C353.297 255.654 348.041 252.15 344.304 248.179C341.128 244.58 339.392 240.213 339.094 235.079C339.063 234.548 339.048 234.009 339.048 233.462L339.929 171.176C339.965 168.602 337.594 166.661 335.104 167.315C322.928 170.512 312.166 175.494 302.818 182.262C301.554 183.178 300.315 184.126 299.102 185.107C284.452 197.133 276.659 212.843 275.722 232.237C275.676 233.176 275.647 234.123 275.634 235.079C275.628 235.473 275.626 235.868 275.626 236.265C275.626 241.113 275.956 245.668 276.617 249.931C278.28 260.662 282.038 269.539 287.89 276.561C296.066 286.372 305.526 293.497 316.272 297.935C322.633 300.507 330.209 303.117 339 305.767C342.937 306.954 360.072 309.392 360.072 313.218V349.726H360.075L360.072 435C360.072 439.418 363.654 443 368.072 443H374.497C378.915 443 382.497 439.418 382.497 435V414.618L382.508 414.617V368.013L382.497 368.015V321.149L383.391 321.465C388.16 323.151 392.67 325.494 396.792 328.426C398.033 329.309 399.2 330.312 400.068 331.564C402.317 334.809 403.55 338.586 403.765 342.896V407.164C403.765 409.702 406.101 411.603 408.559 410.97C415.719 409.125 422.333 406.604 428.399 403.405Z" fill="white"/>
<path d="M339 305.767C342.937 306.954 360.072 309.392 360.072 313.218L339 305.767Z" fill="white"/>
<path d="M2765.93 336.7C2765.93 343.1 2765.53 349.767 2764.73 356.7H2609.93C2611 370.567 2615.4 381.233 2623.13 388.7C2631.13 395.9 2640.87 399.5 2652.33 399.5C2669.4 399.5 2681.27 392.3 2687.93 377.9H2760.73C2757 392.567 2750.2 405.767 2740.33 417.5C2730.73 429.233 2718.6 438.433 2703.93 445.1C2689.27 451.767 2672.87 455.1 2654.73 455.1C2632.87 455.1 2613.4 450.433 2596.33 441.1C2579.27 431.767 2565.93 418.433 2556.33 401.1C2546.73 383.767 2541.93 363.5 2541.93 340.3C2541.93 317.1 2546.6 296.833 2555.93 279.5C2565.53 262.167 2578.87 248.833 2595.93 239.5C2613 230.167 2632.6 225.5 2654.73 225.5C2676.33 225.5 2695.53 230.033 2712.33 239.1C2729.13 248.167 2742.2 261.1 2751.53 277.9C2761.13 294.7 2765.93 314.3 2765.93 336.7ZM2695.93 318.7C2695.93 306.967 2691.93 297.633 2683.93 290.7C2675.93 283.767 2665.93 280.3 2653.93 280.3C2642.47 280.3 2632.73 283.633 2624.73 290.3C2617 296.967 2612.2 306.433 2610.33 318.7H2695.93Z" fill="black"/>
<path d="M2471.97 205.5C2459.97 205.5 2450.1 202.033 2442.37 195.1C2434.9 187.9 2431.17 179.1 2431.17 168.7C2431.17 158.033 2434.9 149.233 2442.37 142.3C2450.1 135.1 2459.97 131.5 2471.97 131.5C2483.7 131.5 2493.3 135.1 2500.77 142.3C2508.5 149.233 2512.37 158.033 2512.37 168.7C2512.37 179.1 2508.5 187.9 2500.77 195.1C2493.3 202.033 2483.7 205.5 2471.97 205.5ZM2505.97 228.7V451.9H2437.57V228.7H2505.97Z" fill="black"/>
<path d="M2304.03 226.3C2330.17 226.3 2350.97 234.833 2366.43 251.9C2382.17 268.7 2390.03 291.9 2390.03 321.5V451.9H2322.03V330.7C2322.03 315.767 2318.17 304.167 2310.43 295.9C2302.7 287.633 2292.3 283.5 2279.23 283.5C2266.17 283.5 2255.77 287.633 2248.03 295.9C2240.3 304.167 2236.43 315.767 2236.43 330.7V451.9H2168.03V228.7H2236.43V258.3C2243.37 248.433 2252.7 240.7 2264.43 235.1C2276.17 229.233 2289.37 226.3 2304.03 226.3Z" fill="black"/>
<path d="M2014.95 455.1C1993.08 455.1 1973.35 450.433 1955.75 441.1C1938.41 431.767 1924.68 418.433 1914.55 401.1C1904.68 383.767 1899.75 363.5 1899.75 340.3C1899.75 317.367 1904.81 297.233 1914.95 279.9C1925.08 262.3 1938.95 248.833 1956.55 239.5C1974.15 230.167 1993.88 225.5 2015.75 225.5C2037.61 225.5 2057.35 230.167 2074.95 239.5C2092.55 248.833 2106.41 262.3 2116.55 279.9C2126.68 297.233 2131.75 317.367 2131.75 340.3C2131.75 363.233 2126.55 383.5 2116.15 401.1C2106.01 418.433 2092.01 431.767 2074.15 441.1C2056.55 450.433 2036.81 455.1 2014.95 455.1ZM2014.95 395.9C2028.01 395.9 2039.08 391.1 2048.15 381.5C2057.48 371.9 2062.15 358.167 2062.15 340.3C2062.15 322.433 2057.61 308.7 2048.55 299.1C2039.75 289.5 2028.81 284.7 2015.75 284.7C2002.41 284.7 1991.35 289.5 1982.55 299.1C1973.75 308.433 1969.35 322.167 1969.35 340.3C1969.35 358.167 1973.61 371.9 1982.15 381.5C1990.95 391.1 2001.88 395.9 2014.95 395.9Z" fill="black"/>
<path d="M1760.26 455.1C1738.39 455.1 1718.66 450.433 1701.06 441.1C1683.73 431.767 1669.99 418.433 1659.86 401.1C1649.99 383.767 1645.06 363.5 1645.06 340.3C1645.06 317.367 1650.13 297.233 1660.26 279.9C1670.39 262.3 1684.26 248.833 1701.86 239.5C1719.46 230.167 1739.19 225.5 1761.06 225.5C1782.93 225.5 1802.66 230.167 1820.26 239.5C1837.86 248.833 1851.73 262.3 1861.86 279.9C1871.99 297.233 1877.06 317.367 1877.06 340.3C1877.06 363.233 1871.86 383.5 1861.46 401.1C1851.33 418.433 1837.33 431.767 1819.46 441.1C1801.86 450.433 1782.13 455.1 1760.26 455.1ZM1760.26 395.9C1773.33 395.9 1784.39 391.1 1793.46 381.5C1802.79 371.9 1807.46 358.167 1807.46 340.3C1807.46 322.433 1802.93 308.7 1793.86 299.1C1785.06 289.5 1774.13 284.7 1761.06 284.7C1747.73 284.7 1736.66 289.5 1727.86 299.1C1719.06 308.433 1714.66 322.167 1714.66 340.3C1714.66 358.167 1718.93 371.9 1727.46 381.5C1736.26 391.1 1747.19 395.9 1760.26 395.9Z" fill="black"/>
<path d="M1536.43 399.1H1626.03V451.9H1468.03V171.1H1536.43V399.1Z" fill="black"/>
<path d="M1313.76 455.5C1292.96 455.5 1274.16 450.833 1257.36 441.5C1240.56 431.9 1227.36 418.567 1217.76 401.5C1208.16 384.167 1203.36 364.167 1203.36 341.5C1203.36 319.1 1208.29 299.233 1218.16 281.9C1228.02 264.567 1241.49 251.233 1258.56 241.9C1275.62 232.567 1294.69 227.9 1315.76 227.9C1336.82 227.9 1355.89 232.567 1372.96 241.9C1390.02 251.233 1403.49 264.567 1413.36 281.9C1423.22 299.233 1428.16 319.1 1428.16 341.5C1428.16 363.9 1423.09 383.767 1412.96 401.1C1402.82 418.433 1388.96 431.9 1371.36 441.5C1354.02 450.833 1334.82 455.5 1313.76 455.5ZM1313.76 415.9C1325.49 415.9 1336.42 413.1 1346.56 407.5C1356.96 401.9 1365.36 393.5 1371.76 382.3C1378.16 371.1 1381.36 357.5 1381.36 341.5C1381.36 325.5 1378.29 312.033 1372.16 301.1C1366.02 289.9 1357.89 281.5 1347.76 275.9C1337.62 270.3 1326.69 267.5 1314.96 267.5C1303.22 267.5 1292.29 270.3 1282.16 275.9C1272.29 281.5 1264.42 289.9 1258.56 301.1C1252.69 312.033 1249.76 325.5 1249.76 341.5C1249.76 365.233 1255.76 383.633 1267.76 396.7C1280.02 409.5 1295.36 415.9 1313.76 415.9Z" fill="black"/>
<path d="M1173.28 336.3C1173.28 344.567 1172.75 352.033 1171.68 358.7H1003.28C1004.61 376.3 1011.15 390.433 1022.88 401.1C1034.61 411.767 1049.01 417.1 1066.08 417.1C1090.61 417.1 1107.95 406.833 1118.08 386.3H1167.28C1160.61 406.567 1148.48 423.233 1130.88 436.3C1113.55 449.1 1091.95 455.5 1066.08 455.5C1045.01 455.5 1026.08 450.833 1009.28 441.5C992.748 431.9 979.681 418.567 970.081 401.5C960.748 384.167 956.081 364.167 956.081 341.5C956.081 318.833 960.614 298.967 969.681 281.9C979.014 264.567 991.948 251.233 1008.48 241.9C1025.28 232.567 1044.48 227.9 1066.08 227.9C1086.88 227.9 1105.41 232.433 1121.68 241.5C1137.95 250.567 1150.61 263.367 1159.68 279.9C1168.75 296.167 1173.28 314.967 1173.28 336.3ZM1125.68 321.9C1125.41 305.1 1119.41 291.633 1107.68 281.5C1095.95 271.367 1081.41 266.3 1064.08 266.3C1048.35 266.3 1034.88 271.367 1023.68 281.5C1012.48 291.367 1005.81 304.833 1003.68 321.9H1125.68Z" fill="black"/>
<path d="M911.4 451.9H865.8L728.6 244.3V451.9H683V173.5H728.6L865.8 380.7V173.5H911.4V451.9Z" fill="black"/>
<ellipse cx="2843.39" cy="415.954" rx="39.454" ry="39.4542" fill="#2735D5"/>
<ellipse cx="2843.39" cy="415.954" rx="39.454" ry="39.4542" fill="url(#paint1_linear_133_42)"/>
<ellipse cx="2843.38" cy="415.953" rx="33.6803" ry="33.6803" fill="#2735D5"/>
<defs>
<linearGradient id="paint0_linear_133_42" x1="0.000845478" y1="293.5" x2="587.001" y2="293.5" gradientUnits="userSpaceOnUse">
<stop stop-color="#2735D5"/>
<stop offset="0.0132365" stop-color="#2735D5"/>
<stop offset="0.375879" stop-color="#8573FE"/>
<stop offset="0.387556" stop-color="#8573FE"/>
<stop offset="0.707473" stop-color="#EDAEFD"/>
<stop offset="1" stop-color="#32EDFF"/>
</linearGradient>
<linearGradient id="paint1_linear_133_42" x1="2803.93" y1="415.954" x2="2882.84" y2="415.954" gradientUnits="userSpaceOnUse">
<stop stop-color="#2735D5"/>
<stop offset="0.0132365" stop-color="#2735D5"/>
<stop offset="0.375879" stop-color="#8573FE"/>
<stop offset="0.387556" stop-color="#8573FE"/>
<stop offset="0.707473" stop-color="#EDAEFD"/>
<stop offset="1" stop-color="#32EDFF"/>
</linearGradient>
</defs>
</svg>
