<svg width="587" height="587" viewBox="0 0 587 587" fill="none" xmlns="http://www.w3.org/2000/svg">
<circle cx="293.5" cy="293.5" r="284.5" fill="#2735D5"/>
<circle cx="293.5" cy="293.5" r="284.5" stroke="black" stroke-width="18"/>
<circle cx="293.5" cy="293.5" r="284.5" stroke="url(#paint0_linear_133_43)" stroke-width="18"/>
<path d="M109 287.99C109 263.695 114.256 242.087 124.768 223.166C135.28 204.011 149.88 189.177 168.568 178.665C187.489 167.92 208.864 162.547 232.691 162.547C249.337 162.547 264.617 165.052 278.531 170.063C281.361 171.082 281.799 174.815 279.484 176.735C267.372 187.953 261.543 199.126 257.936 217.224C257.518 219.808 254.756 221.335 252.284 220.474C246.04 218.297 239.275 217.209 231.99 217.209C213.536 217.209 198.585 223.633 187.139 236.481C175.693 249.329 169.969 266.499 169.969 287.99C169.969 309.481 175.693 326.65 187.139 339.498C198.585 352.346 213.536 358.77 231.99 358.77C239.396 358.77 246.263 357.646 252.593 355.397C254.966 354.554 257.636 355.919 258.189 358.375C261.942 375.031 267.168 385.399 279.645 399.651C281.433 401.693 280.717 404.913 278.156 405.812C264.343 410.658 249.188 413.082 232.691 413.082C208.864 413.082 187.489 407.826 168.568 397.314C149.88 386.568 135.28 371.735 124.768 352.813C114.256 333.892 109 312.284 109 287.99Z" fill="white"/>
<path d="M464.084 231.974C464.351 234.285 462.508 236.265 460.182 236.265H404.367C402.158 236.265 400.367 234.474 400.367 232.265V170.781C400.367 168.243 402.703 166.342 405.163 166.965C419.297 170.543 431.13 176.474 440.663 184.757C453.971 196.319 461.778 212.058 464.084 231.974Z" fill="white"/>
<path d="M336.231 339.983H280.031C277.82 339.983 276.046 341.827 276.233 344.03C277.941 364.09 285.915 380.144 300.154 392.192C300.878 392.794 301.614 393.385 302.361 393.963C311.607 401.123 322.527 406.447 335.12 409.934C337.601 410.621 340 408.713 340 406.139V342.655C339.4 341.098 337.943 339.983 336.231 339.983Z" fill="white"/>
<path d="M428.399 403.405C441.481 396.397 451.292 387.52 457.833 376.775C464.607 365.796 467.994 353.882 467.994 341.034C467.994 324.215 463.79 311.017 455.38 301.439C447.204 291.628 437.86 284.62 427.348 280.415C416.836 276.21 401.886 271.422 382.497 266.049V211.737L382.508 211.741V163.383L382.497 163.382V143C382.497 138.582 378.915 135 374.497 135H368.072C363.654 135 360.072 138.582 360.072 143L360.075 225.36H360.072V258.691C353.297 255.654 348.041 252.15 344.304 248.179C341.128 244.58 339.392 240.213 339.094 235.079C339.063 234.548 339.048 234.009 339.048 233.462L339.929 171.176C339.965 168.602 337.594 166.661 335.104 167.315C322.928 170.512 312.166 175.494 302.818 182.262C301.554 183.178 300.315 184.126 299.102 185.107C284.452 197.133 276.659 212.843 275.722 232.237C275.676 233.176 275.647 234.123 275.634 235.079C275.628 235.473 275.626 235.868 275.626 236.265C275.626 241.113 275.956 245.668 276.617 249.931C278.28 260.662 282.038 269.539 287.89 276.561C296.066 286.372 305.526 293.497 316.272 297.935C322.633 300.507 330.209 303.117 339 305.767C342.937 306.954 360.072 309.392 360.072 313.218V349.726H360.075L360.072 435C360.072 439.418 363.654 443 368.072 443H374.497C378.915 443 382.497 439.418 382.497 435V414.618L382.508 414.617V368.013L382.497 368.015V321.149L383.391 321.465C388.16 323.151 392.67 325.494 396.792 328.426C398.033 329.309 399.2 330.312 400.068 331.564C402.317 334.809 403.55 338.586 403.765 342.896V407.164C403.765 409.702 406.101 411.603 408.559 410.97C415.719 409.125 422.333 406.604 428.399 403.405Z" fill="white"/>
<path d="M339 305.767C342.937 306.954 360.072 309.392 360.072 313.218L339 305.767Z" fill="white"/>
<defs>
<linearGradient id="paint0_linear_133_43" x1="0.000845478" y1="293.5" x2="587.001" y2="293.5" gradientUnits="userSpaceOnUse">
<stop stop-color="#2735D5"/>
<stop offset="0.0132365" stop-color="#2735D5"/>
<stop offset="0.375879" stop-color="#8573FE"/>
<stop offset="0.387556" stop-color="#8573FE"/>
<stop offset="0.707473" stop-color="#EDAEFD"/>
<stop offset="1" stop-color="#32EDFF"/>
</linearGradient>
</defs>
</svg>
