<svg width="587" height="587" viewBox="0 0 587 587" fill="none" xmlns="http://www.w3.org/2000/svg">
<circle cx="293.5" cy="293.5" r="284.5" fill="#2735D5"/>
<circle cx="293.5" cy="293.5" r="284.5" stroke="black" stroke-width="18"/>
<circle cx="293.5" cy="293.5" r="284.5" stroke="url(#paint0_linear_133_25)" stroke-width="18"/>
<path d="M337.734 362.692C327.712 368.881 316.217 371.976 303.248 371.976C292.048 371.976 281.879 369.618 272.742 364.902C267.676 362.032 263.094 358.484 258.996 354.259C257.38 352.593 255.193 351.564 252.871 351.564H169.414C163.974 351.564 160.123 356.881 162.16 361.925C172.192 386.766 187.831 407.065 209.077 422.82C235.309 442.273 267.142 452 304.575 452C343.481 452 376.198 441.684 402.725 421.052C426.974 402.132 443.394 377.19 451.984 346.224C453.409 341.088 449.425 336.165 444.094 336.165H372.773C365.428 336.165 358.97 340.599 354.749 346.61C350.143 353.17 344.471 358.53 337.734 362.692Z" fill="white"/>
<path d="M105.278 323.911C102.892 326.469 104.705 330.64 108.203 330.64H289.803C292.202 330.64 294.475 329.563 295.995 327.706L310.725 309.7C312.862 307.089 311.004 303.168 307.629 303.168H251.223V303.205H143.464V303.168H128.109C125.891 303.168 123.773 304.088 122.26 305.71L105.278 323.911Z" fill="white"/>
<path d="M150.878 282.515L150.879 282.506L108.664 282.513C105.26 282.514 103.411 278.532 105.608 275.932L123.281 255.012C124.801 253.213 127.037 252.175 129.392 252.175H309.175C312.46 252.175 314.345 255.916 312.389 258.556L297.039 279.276C295.53 281.313 293.145 282.515 290.61 282.514L239.303 282.506L239.302 282.515H150.878Z" fill="white"/>
<path d="M209.519 163.738C187.25 180.187 171.064 201.633 160.962 228.076C159.982 230.64 161.91 233.343 164.655 233.343H254.779C256.958 233.343 259.023 232.435 260.618 230.952C264.428 227.412 268.617 224.46 273.184 222.098C282.027 217.382 292.048 215.024 303.248 215.024C316.217 215.024 327.712 218.119 337.734 224.308C344.471 228.47 350.143 233.83 354.749 240.39C358.97 246.401 365.428 250.835 372.773 250.835H444.094C449.425 250.835 453.409 245.912 451.983 240.776C443.393 209.838 426.973 185.043 402.725 166.391C376.198 145.464 343.481 135 304.575 135C267.437 135 235.751 144.579 209.519 163.738Z" fill="white"/>
<defs>
<linearGradient id="paint0_linear_133_25" x1="0.000845478" y1="293.5" x2="587.001" y2="293.5" gradientUnits="userSpaceOnUse">
<stop stop-color="#2735D5"/>
<stop offset="0.0132365" stop-color="#2735D5"/>
<stop offset="0.375879" stop-color="#8573FE"/>
<stop offset="0.387556" stop-color="#8573FE"/>
<stop offset="0.707473" stop-color="#EDAEFD"/>
<stop offset="1" stop-color="#32EDFF"/>
</linearGradient>
</defs>
</svg>
