<svg width="3159" height="587" viewBox="0 0 3159 587" fill="none" xmlns="http://www.w3.org/2000/svg">
<circle cx="293.5" cy="293.5" r="284.5" fill="#2735D5"/>
<circle cx="293.5" cy="293.5" r="284.5" stroke="black" stroke-width="18"/>
<circle cx="293.5" cy="293.5" r="284.5" stroke="url(#paint0_linear_133_24)" stroke-width="18"/>
<path d="M337.734 362.692C327.712 368.881 316.217 371.976 303.248 371.976C292.048 371.976 281.879 369.618 272.742 364.902C267.676 362.032 263.094 358.484 258.996 354.259C257.38 352.593 255.193 351.564 252.871 351.564H169.414C163.974 351.564 160.123 356.881 162.16 361.925C172.192 386.766 187.831 407.065 209.077 422.82C235.309 442.273 267.142 452 304.575 452C343.481 452 376.198 441.684 402.725 421.052C426.974 402.132 443.394 377.19 451.984 346.224C453.409 341.088 449.425 336.165 444.094 336.165H372.773C365.428 336.165 358.97 340.599 354.749 346.61C350.143 353.17 344.471 358.53 337.734 362.692Z" fill="white"/>
<path d="M105.278 323.911C102.892 326.469 104.705 330.64 108.203 330.64H289.803C292.202 330.64 294.475 329.563 295.995 327.706L310.725 309.7C312.862 307.089 311.004 303.168 307.629 303.168H251.223V303.205H143.464V303.168H128.109C125.891 303.168 123.773 304.088 122.26 305.71L105.278 323.911Z" fill="white"/>
<path d="M150.878 282.515L150.879 282.506L108.664 282.513C105.26 282.514 103.411 278.532 105.608 275.932L123.281 255.012C124.801 253.213 127.037 252.175 129.392 252.175H309.175C312.46 252.175 314.345 255.916 312.389 258.556L297.039 279.276C295.53 281.313 293.145 282.515 290.61 282.514L239.303 282.506L239.302 282.515H150.878Z" fill="white"/>
<path d="M209.519 163.738C187.25 180.187 171.064 201.633 160.962 228.076C159.982 230.64 161.91 233.343 164.655 233.343H254.779C256.958 233.343 259.023 232.435 260.618 230.952C264.428 227.412 268.617 224.46 273.184 222.098C282.027 217.382 292.048 215.024 303.248 215.024C316.217 215.024 327.712 218.119 337.734 224.308C344.471 228.47 350.143 233.83 354.749 240.39C358.97 246.401 365.428 250.835 372.773 250.835H444.094C449.425 250.835 453.409 245.912 451.983 240.776C443.393 209.838 426.973 185.043 402.725 166.391C376.198 145.464 343.481 135 304.575 135C267.437 135 235.751 144.579 209.519 163.738Z" fill="white"/>
<path d="M2814.8 328.346C2814.8 306.213 2819.33 286.613 2828.4 269.546C2837.73 252.479 2850.26 239.279 2866 229.946C2882 220.346 2899.73 215.546 2919.2 215.546C2933.6 215.546 2947.73 218.746 2961.6 225.146C2975.73 231.279 2986.93 239.546 2995.2 249.946V143.546H3041.2V439.546H2995.2V406.346C2987.73 417.013 2977.33 425.813 2964 432.746C2950.93 439.679 2935.86 443.146 2918.8 443.146C2899.6 443.146 2882 438.346 2866 428.746C2850.26 418.879 2837.73 405.279 2828.4 387.946C2819.33 370.346 2814.8 350.479 2814.8 328.346ZM2995.2 329.146C2995.2 313.946 2992 300.746 2985.6 289.546C2979.46 278.346 2971.33 269.813 2961.2 263.946C2951.06 258.079 2940.13 255.146 2928.4 255.146C2916.66 255.146 2905.73 258.079 2895.6 263.946C2885.46 269.546 2877.2 277.946 2870.8 289.146C2864.66 300.079 2861.6 313.146 2861.6 328.346C2861.6 343.546 2864.66 356.879 2870.8 368.346C2877.2 379.813 2885.46 388.613 2895.6 394.746C2906 400.613 2916.93 403.546 2928.4 403.546C2940.13 403.546 2951.06 400.613 2961.2 394.746C2971.33 388.879 2979.46 380.346 2985.6 369.146C2992 357.679 2995.2 344.346 2995.2 329.146Z" fill="black"/>
<path d="M2543.7 328.346C2543.7 306.213 2548.24 286.613 2557.3 269.546C2566.64 252.479 2579.17 239.279 2594.9 229.946C2610.9 220.346 2628.5 215.546 2647.7 215.546C2665.04 215.546 2680.1 219.013 2692.9 225.946C2705.97 232.613 2716.37 241.013 2724.1 251.146V219.146H2770.1V439.546H2724.1V406.746C2716.37 417.146 2705.84 425.813 2692.5 432.746C2679.17 439.679 2663.97 443.146 2646.9 443.146C2627.97 443.146 2610.64 438.346 2594.9 428.746C2579.17 418.879 2566.64 405.279 2557.3 387.946C2548.24 370.346 2543.7 350.479 2543.7 328.346ZM2724.1 329.146C2724.1 313.946 2720.9 300.746 2714.5 289.546C2708.37 278.346 2700.24 269.813 2690.1 263.946C2679.97 258.079 2669.04 255.146 2657.3 255.146C2645.57 255.146 2634.64 258.079 2624.5 263.946C2614.37 269.546 2606.1 277.946 2599.7 289.146C2593.57 300.079 2590.5 313.146 2590.5 328.346C2590.5 343.546 2593.57 356.879 2599.7 368.346C2606.1 379.813 2614.37 388.613 2624.5 394.746C2634.9 400.613 2645.84 403.546 2657.3 403.546C2669.04 403.546 2679.97 400.613 2690.1 394.746C2700.24 388.879 2708.37 380.346 2714.5 369.146C2720.9 357.679 2724.1 344.346 2724.1 329.146Z" fill="black"/>
<path d="M2410.08 215.546C2427.41 215.546 2442.88 219.146 2456.48 226.346C2470.35 233.546 2481.14 244.213 2488.88 258.346C2496.88 272.479 2500.88 289.546 2500.88 309.546V439.546H2455.68V316.346C2455.68 296.613 2450.74 281.546 2440.88 271.146C2431.01 260.479 2417.55 255.146 2400.48 255.146C2383.41 255.146 2369.81 260.479 2359.68 271.146C2349.81 281.546 2344.88 296.613 2344.88 316.346V439.546H2299.68V316.346C2299.68 296.613 2294.74 281.546 2284.88 271.146C2275.01 260.479 2261.54 255.146 2244.48 255.146C2227.41 255.146 2213.81 260.479 2203.68 271.146C2193.81 281.546 2188.88 296.613 2188.88 316.346V439.546H2143.28V219.146H2188.88V244.346C2196.34 235.279 2205.81 228.213 2217.28 223.146C2228.74 218.079 2241.01 215.546 2254.08 215.546C2271.68 215.546 2287.41 219.279 2301.28 226.746C2315.14 234.213 2325.81 245.013 2333.28 259.146C2339.94 245.813 2350.34 235.279 2364.48 227.546C2378.61 219.546 2393.81 215.546 2410.08 215.546Z" fill="black"/>
<path d="M1983.8 443.146C1963 443.146 1944.2 438.479 1927.4 429.146C1910.6 419.546 1897.4 406.213 1887.8 389.146C1878.2 371.813 1873.4 351.813 1873.4 329.146C1873.4 306.746 1878.33 286.879 1888.2 269.546C1898.07 252.213 1911.53 238.879 1928.6 229.546C1945.67 220.213 1964.73 215.546 1985.8 215.546C2006.87 215.546 2025.93 220.213 2043 229.546C2060.07 238.879 2073.53 252.213 2083.4 269.546C2093.27 286.879 2098.2 306.746 2098.2 329.146C2098.2 351.546 2093.13 371.413 2083 388.746C2072.87 406.079 2059 419.546 2041.4 429.146C2024.07 438.479 2004.87 443.146 1983.8 443.146ZM1983.8 403.546C1995.53 403.546 2006.47 400.746 2016.6 395.146C2027 389.546 2035.4 381.146 2041.8 369.946C2048.2 358.746 2051.4 345.146 2051.4 329.146C2051.4 313.146 2048.33 299.679 2042.2 288.746C2036.07 277.546 2027.93 269.146 2017.8 263.546C2007.67 257.946 1996.73 255.146 1985 255.146C1973.27 255.146 1962.33 257.946 1952.2 263.546C1942.33 269.146 1934.47 277.546 1928.6 288.746C1922.73 299.679 1919.8 313.146 1919.8 329.146C1919.8 352.879 1925.8 371.279 1937.8 384.346C1950.07 397.146 1965.4 403.546 1983.8 403.546Z" fill="black"/>
<path d="M1828.32 439.546H1782.72L1645.52 231.946V439.546H1599.92V161.146H1645.52L1782.72 368.346V161.146H1828.32V439.546Z" fill="black"/>
<path d="M1441.63 442.746C1419.76 442.746 1400.03 438.079 1382.43 428.746C1365.1 419.413 1351.36 406.079 1341.23 388.746C1331.36 371.413 1326.43 351.146 1326.43 327.946C1326.43 305.013 1331.5 284.879 1341.63 267.546C1351.76 249.946 1365.63 236.479 1383.23 227.146C1400.83 217.813 1420.56 213.146 1442.43 213.146C1464.3 213.146 1484.03 217.813 1501.63 227.146C1519.23 236.479 1533.1 249.946 1543.23 267.546C1553.36 284.879 1558.43 305.013 1558.43 327.946C1558.43 350.879 1553.23 371.146 1542.83 388.746C1532.7 406.079 1518.7 419.413 1500.83 428.746C1483.23 438.079 1463.5 442.746 1441.63 442.746ZM1441.63 383.546C1454.7 383.546 1465.76 378.746 1474.83 369.146C1484.16 359.546 1488.83 345.813 1488.83 327.946C1488.83 310.079 1484.3 296.346 1475.23 286.746C1466.43 277.146 1455.5 272.346 1442.43 272.346C1429.1 272.346 1418.03 277.146 1409.23 286.746C1400.43 296.079 1396.03 309.813 1396.03 327.946C1396.03 345.813 1400.3 359.546 1408.83 369.146C1417.63 378.746 1428.56 383.546 1441.63 383.546Z" fill="black"/>
<path d="M1237.34 253.546C1245.34 241.279 1255.34 231.679 1267.34 224.746C1279.34 217.546 1292.67 213.946 1307.34 213.946V286.346H1288.54C1271.47 286.346 1258.67 290.079 1250.14 297.546C1241.6 304.746 1237.34 317.546 1237.34 335.946V439.546H1168.94V216.346H1237.34V253.546Z" fill="black"/>
<path d="M1119.81 216.346V439.546H1051.41V409.146C1044.47 419.013 1035.01 427.013 1023.01 433.146C1011.27 439.013 998.206 441.946 983.806 441.946C966.74 441.946 951.673 438.213 938.606 430.746C925.54 423.013 915.406 411.946 908.206 397.546C901.006 383.146 897.406 366.213 897.406 346.746V216.346H965.406V337.546C965.406 352.479 969.273 364.079 977.006 372.346C984.74 380.613 995.14 384.746 1008.21 384.746C1021.54 384.746 1032.07 380.613 1039.81 372.346C1047.54 364.079 1051.41 352.479 1051.41 337.546V216.346H1119.81Z" fill="black"/>
<path d="M751.4 213.546V270.346H843V323.146H751.4V384.746H855V439.546H683V158.746H855V213.546H751.4Z" fill="black"/>
<ellipse cx="3118.65" cy="404" rx="39.454" ry="39.4542" fill="#2735D5"/>
<ellipse cx="3118.65" cy="404" rx="39.454" ry="39.4542" fill="url(#paint1_linear_133_24)"/>
<ellipse cx="3118.65" cy="403.999" rx="33.6803" ry="33.6803" fill="#2735D5"/>
<defs>
<linearGradient id="paint0_linear_133_24" x1="0.000845478" y1="293.5" x2="587.001" y2="293.5" gradientUnits="userSpaceOnUse">
<stop stop-color="#2735D5"/>
<stop offset="0.0132365" stop-color="#2735D5"/>
<stop offset="0.375879" stop-color="#8573FE"/>
<stop offset="0.387556" stop-color="#8573FE"/>
<stop offset="0.707473" stop-color="#EDAEFD"/>
<stop offset="1" stop-color="#32EDFF"/>
</linearGradient>
<linearGradient id="paint1_linear_133_24" x1="3079.2" y1="404" x2="3158.1" y2="404" gradientUnits="userSpaceOnUse">
<stop stop-color="#2735D5"/>
<stop offset="0.0132365" stop-color="#2735D5"/>
<stop offset="0.375879" stop-color="#8573FE"/>
<stop offset="0.387556" stop-color="#8573FE"/>
<stop offset="0.707473" stop-color="#EDAEFD"/>
<stop offset="1" stop-color="#32EDFF"/>
</linearGradient>
</defs>
</svg>
